<?xml version="1.0" encoding="UTF-8" standalone="no"?>
<!-- Created with Inkscape (http://www.inkscape.org/) -->

<svg
   xmlns:dc="http://purl.org/dc/elements/1.1/"
   xmlns:cc="http://creativecommons.org/ns#"
   xmlns:rdf="http://www.w3.org/1999/02/22-rdf-syntax-ns#"
   xmlns:svg="http://www.w3.org/2000/svg"
   xmlns="http://www.w3.org/2000/svg"
   xmlns:sodipodi="http://sodipodi.sourceforge.net/DTD/sodipodi-0.dtd"
   xmlns:inkscape="http://www.inkscape.org/namespaces/inkscape"
   width="180"
   height="180"
   viewBox="0 0 179.99999 180"
   id="svg2"
   version="1.1"
   inkscape:version="0.91 r13725"
   sodipodi:docname="eyes-good.svg"
   inkscape:export-filename="C:\Users\dom_000\Dropbox\academia\Project2\code\assets\eyes-good.png"
   inkscape:export-xdpi="90"
   inkscape:export-ydpi="90">
  <defs
     id="defs4" />
  <sodipodi:namedview
     id="base"
     pagecolor="#ffffff"
     bordercolor="#666666"
     borderopacity="1.0"
     inkscape:pageopacity="0.0"
     inkscape:pageshadow="2"
     inkscape:zoom="3.1450805"
     inkscape:cx="177.00709"
     inkscape:cy="-7.5100565"
     inkscape:document-units="px"
     inkscape:current-layer="layer1"
     showgrid="false"
     inkscape:snap-center="true"
     inkscape:snap-bbox="true"
     inkscape:snap-bbox-edge-midpoints="false"
     units="px"
     inkscape:bbox-nodes="true"
     showguides="true"
     inkscape:guide-bbox="true"
     fit-margin-top="5"
     fit-margin-right="2.5"
     fit-margin-left="2.5"
     fit-margin-bottom="5"
     inkscape:window-width="1920"
     inkscape:window-height="1057"
     inkscape:window-x="1912"
     inkscape:window-y="-8"
     inkscape:window-maximized="1"
     inkscape:snap-page="true"
     showborder="true">
    <sodipodi:guide
       position="189.85816,79.019183"
       orientation="1,0"
       id="guide4142" />
  </sodipodi:namedview>
  <metadata
     id="metadata7">
    <rdf:RDF>
      <cc:Work
         rdf:about="">
        <dc:format>image/svg+xml</dc:format>
        <dc:type
           rdf:resource="http://purl.org/dc/dcmitype/StillImage" />
        <dc:title />
      </cc:Work>
    </rdf:RDF>
  </metadata>
  <g
     inkscape:label="Layer 1"
     inkscape:groupmode="layer"
     id="layer1"
     transform="translate(-25,-812.36218)">
    <rect
       style="opacity:1;fill:#008000;fill-opacity:1;stroke:none;stroke-width:3;stroke-linecap:round;stroke-linejoin:round;stroke-miterlimit:4;stroke-dasharray:none;stroke-opacity:1"
       id="rect4192"
       width="170"
       height="70"
       x="29.999992"
       y="867.36218"
       rx="15"
       ry="15" />
    <circle
       r="0"
       cy="519.79077"
       cx="105.42856"
       id="ellipse4138"
       style="opacity:1;fill:none;fill-opacity:1;stroke:#000000;stroke-width:2;stroke-linecap:round;stroke-linejoin:round;stroke-miterlimit:4;stroke-dasharray:none;stroke-opacity:1" />
    <circle
       r="0"
       cy="509.79077"
       cx="177.4286"
       id="ellipse4138-9"
       style="opacity:1;fill:none;fill-opacity:1;stroke:#000000;stroke-width:2;stroke-linecap:round;stroke-linejoin:round;stroke-miterlimit:4;stroke-dasharray:none;stroke-opacity:1" />
    <g
       id="g4148"
       transform="translate(2.4999394,-50.000003)">
      <path
         inkscape:connector-curvature="0"
         id="path4162"
         d="M 62.500054,933.61216 A 43.364356,37.500019 0 0 0 25.000053,952.37389 43.364356,37.500019 0 0 0 62.500054,971.11216 43.364356,37.500019 0 0 0 100.00005,952.34948 43.364356,37.500019 0 0 0 62.500054,933.61216 Z"
         style="opacity:1;fill:#ffffff;fill-opacity:1;stroke:#000000;stroke-width:2.5;stroke-linecap:round;stroke-linejoin:round;stroke-miterlimit:4;stroke-dasharray:none;stroke-opacity:1" />
      <path
         inkscape:connector-curvature="0"
         id="path4185"
         d="m 62.500002,935.01633 a 17.345758,17.345758 0 0 0 -17.345857,17.34586 17.345758,17.345758 0 0 0 17.345857,17.34586 17.345758,17.345758 0 0 0 17.345857,-17.34586 17.345758,17.345758 0 0 0 -17.345857,-17.34586 z m 0,14.01252 a 3.3333377,3.3333377 0 0 1 3.333338,3.33334 3.3333377,3.3333377 0 0 1 -3.333338,3.33334 3.3333377,3.3333377 0 0 1 -3.333338,-3.33334 3.3333377,3.3333377 0 0 1 3.333338,-3.33334 z"
         style="opacity:1;fill:#000000;fill-opacity:1;stroke:#000000;stroke-width:1;stroke-linecap:round;stroke-linejoin:round;stroke-miterlimit:4;stroke-dasharray:none;stroke-opacity:1" />
    </g>
    <g
       id="g4152"
       transform="translate(2.4999424,-50.000003)">
      <path
         style="opacity:1;fill:#ffffff;fill-opacity:1;stroke:#000000;stroke-width:2.5;stroke-linecap:round;stroke-linejoin:round;stroke-miterlimit:4;stroke-dasharray:none;stroke-opacity:1"
         d="m 162.50005,933.61216 a 43.364356,37.500019 0 0 0 -37.5,18.76173 43.364356,37.500019 0 0 0 37.5,18.73827 43.364356,37.500019 0 0 0 37.5,-18.76268 43.364356,37.500019 0 0 0 -37.5,-18.73732 z"
         id="path4138"
         inkscape:connector-curvature="0" />
      <path
         style="opacity:1;fill:#000000;fill-opacity:1;stroke:#000000;stroke-width:1;stroke-linecap:round;stroke-linejoin:round;stroke-miterlimit:4;stroke-dasharray:none;stroke-opacity:1"
         d="M 162.5,935.01633 A 17.345758,17.345758 0 0 0 145.15415,952.36219 17.345758,17.345758 0 0 0 162.5,969.70805 17.345758,17.345758 0 0 0 179.84586,952.36219 17.345758,17.345758 0 0 0 162.5,935.01633 Z m 0,14.01252 a 3.3333377,3.3333377 0 0 1 3.33334,3.33334 3.3333377,3.3333377 0 0 1 -3.33334,3.33334 3.3333377,3.3333377 0 0 1 -3.33334,-3.33334 3.3333377,3.3333377 0 0 1 3.33334,-3.33334 z"
         id="path4140"
         inkscape:connector-curvature="0" />
    </g>
    <rect
       style="opacity:1;fill:none;fill-opacity:1;stroke:#000000;stroke-width:1;stroke-linecap:round;stroke-linejoin:round;stroke-miterlimit:4;stroke-dasharray:none;stroke-opacity:1"
       id="rect3340"
       width="180"
       height="180"
       x="24.999992"
       y="812.36218" />
  </g>
</svg>
