<?xml version="1.0" encoding="UTF-8" standalone="no"?>
<!-- Created with Inkscape (http://www.inkscape.org/) -->

<svg
   xmlns:dc="http://purl.org/dc/elements/1.1/"
   xmlns:cc="http://creativecommons.org/ns#"
   xmlns:rdf="http://www.w3.org/1999/02/22-rdf-syntax-ns#"
   xmlns:svg="http://www.w3.org/2000/svg"
   xmlns="http://www.w3.org/2000/svg"
   xmlns:sodipodi="http://sodipodi.sourceforge.net/DTD/sodipodi-0.dtd"
   xmlns:inkscape="http://www.inkscape.org/namespaces/inkscape"
   width="80"
   height="80"
   viewBox="0 0 79.999998 80"
   id="svg2"
   version="1.1"
   inkscape:version="0.91 r13725"
   sodipodi:docname="hand-closed-bad.svg">
  <defs
     id="defs4" />
  <sodipodi:namedview
     id="base"
     pagecolor="#ffffff"
     bordercolor="#666666"
     borderopacity="1.0"
     inkscape:pageopacity="0.0"
     inkscape:pageshadow="2"
     inkscape:zoom="2"
     inkscape:cx="136.70418"
     inkscape:cy="65.162176"
     inkscape:document-units="px"
     inkscape:current-layer="layer1"
     showgrid="false"
     inkscape:snap-center="true"
     inkscape:snap-bbox="true"
     inkscape:snap-bbox-edge-midpoints="false"
     units="px"
     inkscape:bbox-nodes="true"
     showguides="true"
     inkscape:guide-bbox="true"
     fit-margin-top="0"
     fit-margin-right="0"
     fit-margin-left="0"
     fit-margin-bottom="0"
     inkscape:window-width="1858"
     inkscape:window-height="1057"
     inkscape:window-x="54"
     inkscape:window-y="-8"
     inkscape:window-maximized="1"
     inkscape:snap-page="true"
     showborder="true" />
  <metadata
     id="metadata7">
    <rdf:RDF>
      <cc:Work
         rdf:about="">
        <dc:format>image/svg+xml</dc:format>
        <dc:type
           rdf:resource="http://purl.org/dc/dcmitype/StillImage" />
        <dc:title></dc:title>
      </cc:Work>
    </rdf:RDF>
  </metadata>
  <g
     inkscape:label="Layer 1"
     inkscape:groupmode="layer"
     id="layer1"
     transform="translate(-22.500053,-912.36216)">
    <rect
       style="opacity:1;fill:#c00000;fill-opacity:1;stroke:none;stroke-width:3;stroke-linecap:round;stroke-linejoin:round;stroke-miterlimit:4;stroke-dasharray:none;stroke-opacity:1"
       id="rect4192"
       width="70"
       height="70"
       x="27.5"
       y="917.36218"
       rx="5"
       ry="5" />
    <circle
       r="0"
       cy="569.79077"
       cx="105.42856"
       id="ellipse4138"
       style="opacity:1;fill:none;fill-opacity:1;stroke:#000000;stroke-width:2;stroke-linecap:round;stroke-linejoin:round;stroke-miterlimit:4;stroke-dasharray:none;stroke-opacity:1" />
    <path
       inkscape:connector-curvature="0"
       style="font-style:normal;font-weight:normal;font-size:medium;line-height:125%;font-family:Sans;letter-spacing:0px;word-spacing:0px;fill:#808080;fill-opacity:1;stroke:none;stroke-width:1px;stroke-linecap:butt;stroke-linejoin:miter;stroke-opacity:1"
       d="m 92.50401,928.85743 q 1.35566,0.19936 2.71132,1.19618 1.35566,0.99681 2.39235,2.43222 1.07655,1.4354 1.71451,3.18979 0.67783,1.71451 0.67783,3.38915 l 0,0.23924 -2.15311,20.41467 q -0.0797,0.83732 -0.35885,2.3126 -0.23924,1.43541 -0.99681,2.91069 -0.75758,1.4354 -2.19298,2.63157 -1.43541,1.19618 -3.82776,1.55503 -0.2791,0.0399 -0.55821,0.0797 -0.27911,0 -0.55821,0 -2.35247,0 -4.10686,-1.1563 -1.27592,3.11005 -3.62839,5.02393 -2.3126,1.874 -5.26316,1.874 -2.15311,0 -3.98724,-0.79745 -1.79426,-0.83732 -3.14992,-2.19298 -1.27592,1.63477 -3.07017,2.7512 -1.79426,1.07655 -4.06699,1.4354 0.11962,0.43859 0.15949,0.8772 0.0399,0.39872 0.0399,0.83732 0,0.43858 -0.0797,1.03668 -0.0399,0.55821 -0.15949,1.11643 -0.11962,0.55821 -0.35885,1.07655 -0.19937,0.51834 -0.55822,0.87719 -0.35885,0.4386 -0.91706,0.91707 -0.51834,0.47847 -1.31579,0.87719 -0.79745,0.39873 -1.87401,0.63796 -1.03668,0.27911 -2.43221,0.27911 -1.39554,0 -3.11005,-0.27911 -1.67464,-0.27911 -3.66826,-0.91706 -1.75439,-0.55822 -4.14673,-1.5949 -2.39235,-1.07656 -4.90431,-2.35247 -2.51196,-1.31579 -4.86443,-2.71133 -2.3126,-1.4354 -3.94737,-2.75119 -1.1563,-0.91707 -2.07337,-2.15311 -0.91706,-1.23605 -1.55502,-2.67145 -0.63796,-1.43541 -0.99681,-2.95056 -0.31898,-1.55503 -0.31898,-3.11005 0,-2.27273 0.7177,-4.1866 0.11962,0 0.11962,-0.0399 l 0,-0.0797 q 1.99362,-4.10686 4.10686,-6.18022 2.11324,-2.11324 4.46571,-2.47209 -0.23924,-2.35248 -0.4386,-4.78469 -0.19936,-2.47209 -0.35885,-4.74482 -0.15949,-2.27273 -0.31898,-4.1866 -0.11962,-1.95375 -0.19936,-3.26954 l 0,-0.47847 q 0,-2.23285 0.75758,-4.1866 0.75757,-1.99362 2.15311,-3.42903 1.47527,-1.51515 3.34928,-2.35247 1.91387,-0.83732 3.94737,-0.83732 2.23285,0 3.50877,0.31898 1.27592,0.27911 2.07336,0.55821 l 0.23924,0.0797 q 0.63796,0.15949 0.99681,0.31898 0.39872,0.11961 1.03668,0.11961 0.19936,0 0.75758,-0.31898 0.59808,-0.31897 1.03668,-0.59808 1.39553,-0.79745 3.30941,-1.5949 1.91387,-0.79745 4.38596,-0.79745 1.31579,0 2.43222,0.31898 1.1563,0.27911 2.07337,0.75758 0.95693,0.47847 1.71451,1.03668 0.75758,0.51834 1.39553,0.99681 l 0.23924,0.19936 q 0.27911,0.19937 0.55821,0.47847 0.31898,0.27911 0.51834,0.35885 0.27911,0 0.67783,-0.0797 0.4386,-0.0797 0.8772,-0.15949 0.79745,-0.19936 1.71451,-0.31898 0.91707,-0.15949 2.19298,-0.15949 1.55503,0 3.30941,0.35885 1.19618,0.23924 2.11324,0.67782 0.95694,0.39873 1.67464,0.91707 0.75758,0.47847 1.27592,1.03668 0.55821,0.51834 0.99681,0.95695 0.4386,0.43859 0.7177,0.79745 0.31898,0.31898 0.59809,0.39872 0.27911,0.0798 0.47847,0.0798 0.23923,0 0.47847,0 0.19936,0 0.43859,0 0.23924,0 0.51834,-0.0798 l 1.55503,0 q 0.67783,0 1.47528,0.0399 0.83732,0 1.83413,0.19937 z"
       id="path5381" />
    <path
       inkscape:connector-curvature="0"
       style="font-style:normal;font-weight:normal;font-size:medium;line-height:125%;font-family:Sans;letter-spacing:0px;word-spacing:0px;fill:#c0c0c0;fill-opacity:1;stroke:none;stroke-width:1px;stroke-linecap:butt;stroke-linejoin:miter;stroke-opacity:1"
       d="m 57.33654,979.21629 q 0.0797,-0.31898 0.15949,-0.63796 0.0798,-0.35885 0.0798,-0.7177 0,-0.59809 -0.19936,-1.1563 -0.19937,-0.59809 -0.51834,-1.1563 -1.79426,-0.71771 -3.22967,-1.91388 -1.43541,-1.23604 -2.35247,-2.87081 -1.27592,1.07655 -2.91069,1.75438 -1.63477,0.63796 -3.62839,0.63796 -2.11323,0 -3.82775,-0.75757 -1.67464,-0.75758 -2.91068,-2.11324 -1.23605,-1.39554 -1.91388,-3.34928 -0.67783,-1.95375 -0.7177,-4.3461 0,-0.23923 -0.0399,-0.87719 -0.0399,-0.63796 -0.11961,-1.63477 -0.0797,-0.99681 -0.19936,-2.23285 -0.11962,-1.27593 -0.23924,-2.75121 -0.7177,0.19936 -1.99362,1.55503 -1.23604,1.31579 -2.67145,4.26635 -0.35885,1.03668 -0.35885,2.27273 0,1.99361 0.83732,4.02711 0.83732,2.0335 2.3126,3.1898 1.39553,1.11641 3.54864,2.39233 2.15311,1.27593 4.46571,2.47209 2.35247,1.19618 4.58533,2.19299 2.27273,0.95694 3.86762,1.47528 1.51515,0.47847 2.83094,0.75757 1.35567,0.23923 2.39235,0.23923 0.99681,0 1.63477,-0.15949 0.67783,-0.19935 1.11642,-0.55821 z"
       id="path5379" />
    <path
       inkscape:connector-curvature="0"
       style="font-style:normal;font-weight:normal;font-size:medium;line-height:125%;font-family:Sans;letter-spacing:0px;word-spacing:0px;fill:#c0c0c0;fill-opacity:1;stroke:none;stroke-width:1px;stroke-linecap:butt;stroke-linejoin:miter;stroke-opacity:1"
       d="m 95.2552,938.94515 q 0,-0.9968 -0.39872,-1.91387 -0.39872,-0.95694 -0.95694,-1.71451 -0.55821,-0.75758 -1.19617,-1.23605 -0.59809,-0.51834 -1.03668,-0.59808 -0.71771,-0.0797 -1.35566,-0.15949 -0.59809,-0.0797 -1.11643,-0.0797 -0.35885,0 -0.63796,0.0399 -0.27911,0 -0.55821,0.0797 l -1.19618,0 q -0.43859,0 -0.91706,0 -0.4386,-0.0399 -0.99681,-0.11963 l -0.11962,0 q -1.31579,-0.35884 -2.19298,-1.07655 -0.83732,-0.71771 -1.47528,-1.43541 -0.79745,-0.79745 -1.5949,-1.35565 -0.75757,-0.59809 -2.07336,-0.87721 -0.63796,-0.19935 -1.19617,-0.19935 -0.55822,-0.0399 -1.19618,-0.0399 -0.91706,0 -1.67464,0.0797 -0.7177,0.0797 -1.4354,0.2791 -0.59809,0.0798 -1.23605,0.15949 -0.63796,0.0798 -1.35566,0.0798 -1.1563,0 -2.03349,-0.51833 -0.8772,-0.55822 -1.75439,-1.27593 -0.47847,-0.39873 -1.03668,-0.79745 -0.55822,-0.43859 -1.1563,-0.79745 -0.59809,-0.35885 -1.27592,-0.55821 -0.67783,-0.23924 -1.43541,-0.23924 -1.59489,0 -2.91068,0.59809 -1.27592,0.59809 -2.43222,1.31579 l -0.39872,0.19936 q -0.95694,0.47847 -1.87401,0.87719 -0.87719,0.35886 -1.874,0.35886 -1.1563,0 -1.99362,-0.15949 -0.79745,-0.19937 -1.39553,-0.39873 l -0.15949,-0.0399 q -0.71771,-0.27911 -1.63477,-0.47847 -0.8772,-0.23923 -2.67145,-0.23923 -1.39554,0 -2.39235,0.51834 -0.95694,0.51834 -1.51515,1.1563 -0.75758,0.79745 -1.19617,1.95375 -0.39873,1.11642 -0.39873,2.27272 l 0,0.27911 q 0.0797,1.39553 0.19937,3.42903 0.15949,1.99362 0.31898,4.30622 0.19936,2.3126 0.39872,4.82456 0.19936,2.51196 0.39872,4.9043 0.19937,2.39235 0.35886,4.58533 0.19936,2.15311 0.31897,3.82775 0.15949,1.63477 0.23924,2.63158 0.0797,0.99681 0.0797,1.07656 0,0.83732 0.15949,1.874 0.15949,1.03669 0.63796,1.95375 0.47847,0.8772 1.39554,1.51515 0.91706,0.59809 2.43221,0.59809 1.31579,0 2.27273,-0.4386 0.95694,-0.4386 1.55502,-1.1563 0.59809,-0.7177 0.8772,-1.5949 0.31898,-0.91706 0.31898,-1.83413 l -0.0399,-0.55821 0,-18.42105 q 0,-0.91707 0.63796,-1.63477 0.63796,-0.75758 1.63477,-0.75758 0.99681,0 1.71451,0.7177 0.71771,0.67784 0.99682,1.67465 l 0,21.61085 q 0,1.11643 0.43859,2.11324 0.47847,0.95694 1.27592,1.67464 0.83732,0.7177 1.91387,1.1563 1.07656,0.39872 2.3126,0.39872 1.19618,0 2.27273,-0.39872 1.07656,-0.4386 1.83413,-1.1563 0.79745,-0.71771 1.23605,-1.67464 0.47847,-0.99681 0.47847,-2.11324 l 0,-22.08931 q 0,-0.99681 0.67783,-1.63477 0.7177,-0.63796 1.71451,-0.63796 0.99681,0 1.67464,0.63796 0.7177,0.63796 0.7177,1.63477 l 0,21.13237 q 0,2.35247 1.35567,3.74801 1.39553,1.39553 3.748,1.39553 1.1563,0 2.11324,-0.59808 0.99681,-0.63796 1.75439,-1.63477 0.75757,-0.99681 1.23604,-2.27273 0.47847,-1.31579 0.59809,-2.63158 l 0,-16.50717 q 0,-0.99681 0.67783,-1.67465 0.7177,-0.7177 1.67464,-0.7177 0.95694,0 1.67464,0.75758 0.7177,0.7177 0.7177,1.67464 l 0,0.0797 -0.47847,14.71292 q 0.19937,1.27592 0.8772,2.19298 0.7177,0.91707 1.99362,0.91707 l 0.55821,0 q 0.7177,-0.11962 1.27592,-0.4386 0.59808,-0.35885 1.03668,-0.95694 0.4386,-0.63795 0.7177,-1.59489 0.27911,-0.95694 0.4386,-2.39235 l 2.03349,-20.17543 z"
       id="path5374" />
  </g>
</svg>
