<?xml version="1.0" encoding="UTF-8" standalone="no"?>
<!-- Created with Inkscape (http://www.inkscape.org/) -->

<svg
   xmlns:dc="http://purl.org/dc/elements/1.1/"
   xmlns:cc="http://creativecommons.org/ns#"
   xmlns:rdf="http://www.w3.org/1999/02/22-rdf-syntax-ns#"
   xmlns:svg="http://www.w3.org/2000/svg"
   xmlns="http://www.w3.org/2000/svg"
   xmlns:sodipodi="http://sodipodi.sourceforge.net/DTD/sodipodi-0.dtd"
   xmlns:inkscape="http://www.inkscape.org/namespaces/inkscape"
   width="8.5in"
   height="11in"
   viewBox="0 0 764.99998 990"
   id="svg2"
   version="1.1"
   inkscape:version="0.91 r13725"
   sodipodi:docname="cards.svg">
  <defs
     id="defs4" />
  <sodipodi:namedview
     id="base"
     pagecolor="#ffffff"
     bordercolor="#666666"
     borderopacity="1.0"
     inkscape:pageopacity="0.0"
     inkscape:pageshadow="2"
     inkscape:zoom="0.50000001"
     inkscape:cx="-193.75027"
     inkscape:cy="352.13047"
     inkscape:document-units="px"
     inkscape:current-layer="layer1"
     showgrid="false"
     inkscape:snap-center="true"
     inkscape:snap-bbox="false"
     inkscape:snap-bbox-edge-midpoints="false"
     units="in"
     inkscape:bbox-nodes="true"
     showguides="false"
     inkscape:guide-bbox="true"
     fit-margin-top="0"
     fit-margin-right="0"
     fit-margin-left="0"
     fit-margin-bottom="0"
     inkscape:window-width="1887"
     inkscape:window-height="1079"
     inkscape:window-x="33"
     inkscape:window-y="0"
     inkscape:window-maximized="1"
     inkscape:snap-page="true"
     showborder="true"
     inkscape:snap-object-midpoints="true"
     inkscape:object-nodes="true"
     inkscape:snap-smooth-nodes="true"
     inkscape:object-paths="false"
     inkscape:snap-bbox-midpoints="true"
     inkscape:snap-nodes="true"
     inkscape:bbox-paths="true"
     inkscape:snap-others="true"
     inkscape:snap-global="true">
    <sodipodi:guide
       position="86.499947,571.99998"
       orientation="0,1"
       id="guide4205" />
    <sodipodi:guide
       position="74.499953,592.99998"
       orientation="-0.70710678,0.70710678"
       id="guide4213" />
    <sodipodi:guide
       position="83.000005,603.9926"
       orientation="0,1"
       id="guide4215" />
    <sodipodi:guide
       position="4.3749999,581.99998"
       orientation="0,1"
       id="guide4220" />
    <sodipodi:guide
       position="50.499953,554.99998"
       orientation="1,0"
       id="guide4247" />
  </sodipodi:namedview>
  <metadata
     id="metadata7">
    <rdf:RDF>
      <cc:Work
         rdf:about="">
        <dc:format>image/svg+xml</dc:format>
        <dc:type
           rdf:resource="http://purl.org/dc/dcmitype/StillImage" />
        <dc:title />
      </cc:Work>
    </rdf:RDF>
  </metadata>
  <g
     inkscape:label="Layer 1"
     inkscape:groupmode="layer"
     id="layer1"
     transform="translate(-22.500053,-2.36216)">
    <circle
       r="0"
       cy="490.79074"
       cx="131.42853"
       id="ellipse4138"
       style="opacity:1;fill:none;fill-opacity:1;stroke:#000000;stroke-width:2;stroke-linecap:round;stroke-linejoin:round;stroke-miterlimit:4;stroke-dasharray:none;stroke-opacity:1" />
    <circle
       r="0"
       cy="480.79074"
       cx="203.42857"
       id="ellipse4138-9"
       style="opacity:1;fill:none;fill-opacity:1;stroke:#000000;stroke-width:2;stroke-linecap:round;stroke-linejoin:round;stroke-miterlimit:4;stroke-dasharray:none;stroke-opacity:1" />
    <g
       id="g4300"
       transform="translate(484.00002,-13.000029)">
      <rect
         y="638.86218"
         x="41.500053"
         height="224.99998"
         width="224.99998"
         id="rect4792"
         style="opacity:1;fill:#ffffff;fill-opacity:1;stroke:#000000;stroke-width:2.25;stroke-linecap:round;stroke-linejoin:round;stroke-miterlimit:4;stroke-dasharray:none;stroke-dashoffset:0;stroke-opacity:1" />
      <g
         transform="matrix(2.2499999,0,0,2.2499999,13.374939,-1391.4526)"
         id="g4794">
        <rect
           style="opacity:1;fill:#008000;fill-opacity:1;stroke:none;stroke-width:3;stroke-linecap:round;stroke-linejoin:round;stroke-miterlimit:4;stroke-dasharray:none;stroke-opacity:1"
           id="rect4192"
           width="70"
           height="70"
           x="27.5"
           y="917.36218"
           rx="5"
           ry="5" />
        <path
           style="opacity:1;fill:#ffffff;fill-opacity:1;stroke:#000000;stroke-width:2.5;stroke-linecap:round;stroke-linejoin:round;stroke-miterlimit:4;stroke-dasharray:none;stroke-opacity:1"
           d="M 62.500054,933.61216 A 43.364356,37.500019 0 0 0 25.000053,952.37389 43.364356,37.500019 0 0 0 62.500054,971.11216 43.364356,37.500019 0 0 0 100.00005,952.34948 43.364356,37.500019 0 0 0 62.500054,933.61216 Z"
           id="path4162"
           inkscape:connector-curvature="0" />
        <path
           style="opacity:1;fill:#000000;fill-opacity:1;stroke:#000000;stroke-width:1;stroke-linecap:round;stroke-linejoin:round;stroke-miterlimit:4;stroke-dasharray:none;stroke-opacity:1"
           d="m 62.500002,935.01633 a 17.345758,17.345758 0 0 0 -17.345857,17.34586 17.345758,17.345758 0 0 0 17.345857,17.34586 17.345758,17.345758 0 0 0 17.345857,-17.34586 17.345758,17.345758 0 0 0 -17.345857,-17.34586 z m 0,14.01252 a 3.3333377,3.3333377 0 0 1 3.333338,3.33334 3.3333377,3.3333377 0 0 1 -3.333338,3.33334 3.3333377,3.3333377 0 0 1 -3.333338,-3.33334 3.3333377,3.3333377 0 0 1 3.333338,-3.33334 z"
           id="path4185"
           inkscape:connector-curvature="0" />
      </g>
    </g>
    <g
       id="g4291"
       transform="translate(258.99999,-254.00003)">
      <rect
         style="opacity:1;fill:#ffffff;fill-opacity:1;stroke:#000000;stroke-width:2.25;stroke-linecap:round;stroke-linejoin:round;stroke-miterlimit:4;stroke-dasharray:none;stroke-dashoffset:0;stroke-opacity:1"
         id="rect4818"
         width="224.99998"
         height="224.99998"
         x="266.50006"
         y="638.86218" />
      <g
         transform="matrix(2.2499999,0,0,2.2499999,-159.87506,-1253.0776)"
         id="g4838">
        <g
           id="layer1-9"
           inkscape:label="Layer 1"
           transform="translate(177,-61.499953)">
          <rect
             ry="5"
             rx="5"
             y="917.36218"
             x="27.5"
             height="70"
             width="70"
             id="rect4192-1"
             style="opacity:1;fill:#008000;fill-opacity:1;stroke:none;stroke-width:3;stroke-linecap:round;stroke-linejoin:round;stroke-miterlimit:4;stroke-dasharray:none;stroke-opacity:1" />
          <circle
             style="opacity:1;fill:none;fill-opacity:1;stroke:#000000;stroke-width:2;stroke-linecap:round;stroke-linejoin:round;stroke-miterlimit:4;stroke-dasharray:none;stroke-opacity:1"
             id="ellipse4138-7"
             cx="105.42856"
             cy="569.79077"
             r="0" />
          <g
             transform="matrix(2.8478918,0,0,2.8478918,-501.11381,-1685.2457)"
             id="text4203"
             style="font-style:normal;font-weight:normal;font-size:35px;line-height:125%;font-family:Sans;letter-spacing:0px;word-spacing:0px;fill:#ffffff;fill-opacity:1;stroke:#000000;stroke-width:0.87784237;stroke-linecap:butt;stroke-linejoin:miter;stroke-miterlimit:4;stroke-dasharray:none;stroke-opacity:1">
            <path
               style="fill:#ffffff;fill-opacity:1;stroke:#000000;stroke-width:0.87784237;stroke-miterlimit:4;stroke-dasharray:none;stroke-opacity:1"
               inkscape:connector-curvature="0"
               id="path4208"
               d="m 206.03186,922.70074 0,-5.00732 q 0,-0.20508 0.10254,-0.47852 0.10254,-0.27343 0.29053,-0.51269 0.20507,-0.25635 0.47851,-0.42725 0.29053,-0.1709 0.64942,-0.1709 0.71777,0 1.11084,0.41016 0.39306,0.39307 0.52978,1.14502 l 1.1792,13.62061 q 0,1.52099 -0.3418,2.70019 -0.34179,1.1792 -0.93994,2.08496 -0.59814,0.88867 -1.40136,1.521 -0.80323,0.61523 -1.72608,1.0083 -0.90576,0.37598 -1.87988,0.56396 -0.97412,0.1709 -1.91406,0.1709 -0.97413,0 -1.6919,-0.15381 -0.70068,-0.17089 -1.21338,-0.39306 -0.51269,-0.23926 -0.88867,-0.49561 -0.35889,-0.27344 -0.6665,-0.4956 L 186.276,928.04987 q -0.37598,-0.30762 -0.59814,-0.66651 -0.20508,-0.35888 -0.20508,-0.75195 0,-0.18799 0.0684,-0.42725 0.0684,-0.25635 0.20508,-0.46142 0.1538,-0.22217 0.39306,-0.35889 0.23926,-0.15381 0.58106,-0.15381 0.39306,0 0.6665,0.11963 0.29053,0.11963 0.49561,0.25635 l 5.53711,4.78515 q 0.11962,0.0855 0.23925,0.0855 0.13672,0 0.30762,-0.13672 0.18799,-0.1538 0.18799,-0.44433 0,-0.11963 -0.0513,-0.18799 -0.0342,-0.0684 -0.11963,-0.15381 l -8.04932,-8.2373 q -0.25634,-0.27344 -0.37597,-0.56397 -0.11963,-0.30761 -0.11963,-0.56396 0,-0.0855 0.0684,-0.30762 0.0684,-0.22217 0.22217,-0.46143 0.1538,-0.23925 0.39306,-0.41015 0.25635,-0.18799 0.63233,-0.18799 0.37597,0 0.61523,0.11963 0.23926,0.10254 0.29053,0.15381 l 7.69043,6.93847 q 0.0684,0.0342 0.13672,0.0513 0.0855,0.0171 0.11963,0.0171 0.18798,0 0.27343,-0.10254 0.10254,-0.10253 0.10254,-0.23925 0,-0.0854 -0.0684,-0.18799 -0.0342,-0.0513 -0.0513,-0.0854 l -7.10937,-8.54492 q -0.41016,-0.41016 -0.41016,-1.04248 0,-0.25635 0.10254,-0.5127 0.11963,-0.25635 0.30762,-0.44433 0.20508,-0.18799 0.44433,-0.30762 0.25635,-0.11963 0.52979,-0.11963 0.23926,0 0.4956,0.0684 0.27344,0.0684 0.5127,0.30762 l 8.32275,8.4082 q 0.10254,0.11963 0.27344,0.11963 0.15381,0 0.27344,-0.10254 0.11963,-0.10254 0.11963,-0.27344 0,-0.15381 -0.0854,-0.29053 l -5.12695,-7.3999 q -0.10254,-0.18799 -0.20508,-0.42724 -0.0855,-0.23926 -0.0855,-0.42725 0,-0.22217 0.0684,-0.47852 0.0684,-0.27343 0.22217,-0.4956 0.17089,-0.23926 0.44433,-0.37598 0.27344,-0.15381 0.66651,-0.15381 0.6665,0 1.12793,0.54688 l 7.98095,9.70703 q 0.22217,0.22217 0.54688,0.22217 0.30761,0 0.52978,-0.20508 0.22217,-0.22217 0.22217,-0.56397 z" />
          </g>
        </g>
      </g>
    </g>
    <circle
       style="opacity:1;fill:none;fill-opacity:1;stroke:#000000;stroke-width:2;stroke-linecap:round;stroke-linejoin:round;stroke-miterlimit:4;stroke-dasharray:none;stroke-opacity:1"
       id="circle4881"
       cx="260.42853"
       cy="252.2908"
       r="0" />
    <g
       id="g4307"
       transform="translate(18.000045,211.99997)">
      <rect
         y="413.86221"
         x="41.500053"
         height="224.99998"
         width="449.99997"
         id="rect4955"
         style="opacity:1;fill:#ffffff;fill-opacity:1;stroke:#000000;stroke-width:2.24999976;stroke-linecap:round;stroke-linejoin:round;stroke-miterlimit:4;stroke-dasharray:none;stroke-dashoffset:0;stroke-opacity:1" />
      <g
         transform="matrix(2.2499999,0,0,2.2499999,13.374939,-1616.4526)"
         id="g4957">
        <rect
           style="opacity:1;fill:#008000;fill-opacity:1;stroke:none;stroke-width:3;stroke-linecap:round;stroke-linejoin:round;stroke-miterlimit:4;stroke-dasharray:none;stroke-opacity:1"
           id="rect4959"
           width="70"
           height="70"
           x="27.5"
           y="917.36218"
           rx="5"
           ry="5" />
        <path
           style="opacity:1;fill:#ffffff;fill-opacity:1;stroke:#000000;stroke-width:2.5;stroke-linecap:round;stroke-linejoin:round;stroke-miterlimit:4;stroke-dasharray:none;stroke-opacity:1"
           d="M 62.500054,933.61216 A 43.364356,37.500019 0 0 0 25.000053,952.37389 43.364356,37.500019 0 0 0 62.500054,971.11216 43.364356,37.500019 0 0 0 100.00005,952.34948 43.364356,37.500019 0 0 0 62.500054,933.61216 Z"
           id="path4961"
           inkscape:connector-curvature="0" />
        <path
           style="opacity:1;fill:#000000;fill-opacity:1;stroke:#000000;stroke-width:1;stroke-linecap:round;stroke-linejoin:round;stroke-miterlimit:4;stroke-dasharray:none;stroke-opacity:1"
           d="m 62.500002,935.01633 a 17.345758,17.345758 0 0 0 -17.345857,17.34586 17.345758,17.345758 0 0 0 17.345857,17.34586 17.345758,17.345758 0 0 0 17.345857,-17.34586 17.345758,17.345758 0 0 0 -17.345857,-17.34586 z m 0,14.01252 a 3.3333377,3.3333377 0 0 1 3.333338,3.33334 3.3333377,3.3333377 0 0 1 -3.333338,3.33334 3.3333377,3.3333377 0 0 1 -3.333338,-3.33334 3.3333377,3.3333377 0 0 1 3.333338,-3.33334 z"
           id="path4963"
           inkscape:connector-curvature="0" />
      </g>
      <g
         transform="matrix(2.2499999,0,0,2.2499999,-159.87506,-1478.0776)"
         id="g4965">
        <g
           id="g4967"
           inkscape:label="Layer 1"
           transform="translate(177,-61.499953)">
          <rect
             ry="5"
             rx="5"
             y="917.36218"
             x="27.5"
             height="70"
             width="70"
             id="rect4969"
             style="opacity:1;fill:#008000;fill-opacity:1;stroke:none;stroke-width:3;stroke-linecap:round;stroke-linejoin:round;stroke-miterlimit:4;stroke-dasharray:none;stroke-opacity:1" />
          <circle
             style="opacity:1;fill:none;fill-opacity:1;stroke:#000000;stroke-width:2;stroke-linecap:round;stroke-linejoin:round;stroke-miterlimit:4;stroke-dasharray:none;stroke-opacity:1"
             id="circle4971"
             cx="105.42856"
             cy="569.79077"
             r="0" />
          <g
             transform="matrix(2.8478918,0,0,2.8478918,-501.11381,-1685.2457)"
             id="g4973"
             style="font-style:normal;font-weight:normal;font-size:35px;line-height:125%;font-family:Sans;letter-spacing:0px;word-spacing:0px;fill:#ffffff;fill-opacity:1;stroke:#000000;stroke-width:0.87784237;stroke-linecap:butt;stroke-linejoin:miter;stroke-miterlimit:4;stroke-dasharray:none;stroke-opacity:1">
            <path
               style="fill:#ffffff;fill-opacity:1;stroke:#000000;stroke-width:0.87784237;stroke-miterlimit:4;stroke-dasharray:none;stroke-opacity:1"
               inkscape:connector-curvature="0"
               id="path4975"
               d="m 206.03186,922.70074 0,-5.00732 q 0,-0.20508 0.10254,-0.47852 0.10254,-0.27343 0.29053,-0.51269 0.20507,-0.25635 0.47851,-0.42725 0.29053,-0.1709 0.64942,-0.1709 0.71777,0 1.11084,0.41016 0.39306,0.39307 0.52978,1.14502 l 1.1792,13.62061 q 0,1.52099 -0.3418,2.70019 -0.34179,1.1792 -0.93994,2.08496 -0.59814,0.88867 -1.40136,1.521 -0.80323,0.61523 -1.72608,1.0083 -0.90576,0.37598 -1.87988,0.56396 -0.97412,0.1709 -1.91406,0.1709 -0.97413,0 -1.6919,-0.15381 -0.70068,-0.17089 -1.21338,-0.39306 -0.51269,-0.23926 -0.88867,-0.49561 -0.35889,-0.27344 -0.6665,-0.4956 L 186.276,928.04987 q -0.37598,-0.30762 -0.59814,-0.66651 -0.20508,-0.35888 -0.20508,-0.75195 0,-0.18799 0.0684,-0.42725 0.0684,-0.25635 0.20508,-0.46142 0.1538,-0.22217 0.39306,-0.35889 0.23926,-0.15381 0.58106,-0.15381 0.39306,0 0.6665,0.11963 0.29053,0.11963 0.49561,0.25635 l 5.53711,4.78515 q 0.11962,0.0855 0.23925,0.0855 0.13672,0 0.30762,-0.13672 0.18799,-0.1538 0.18799,-0.44433 0,-0.11963 -0.0513,-0.18799 -0.0342,-0.0684 -0.11963,-0.15381 l -8.04932,-8.2373 q -0.25634,-0.27344 -0.37597,-0.56397 -0.11963,-0.30761 -0.11963,-0.56396 0,-0.0855 0.0684,-0.30762 0.0684,-0.22217 0.22217,-0.46143 0.1538,-0.23925 0.39306,-0.41015 0.25635,-0.18799 0.63233,-0.18799 0.37597,0 0.61523,0.11963 0.23926,0.10254 0.29053,0.15381 l 7.69043,6.93847 q 0.0684,0.0342 0.13672,0.0513 0.0855,0.0171 0.11963,0.0171 0.18798,0 0.27343,-0.10254 0.10254,-0.10253 0.10254,-0.23925 0,-0.0854 -0.0684,-0.18799 -0.0342,-0.0513 -0.0513,-0.0854 l -7.10937,-8.54492 q -0.41016,-0.41016 -0.41016,-1.04248 0,-0.25635 0.10254,-0.5127 0.11963,-0.25635 0.30762,-0.44433 0.20508,-0.18799 0.44433,-0.30762 0.25635,-0.11963 0.52979,-0.11963 0.23926,0 0.4956,0.0684 0.27344,0.0684 0.5127,0.30762 l 8.32275,8.4082 q 0.10254,0.11963 0.27344,0.11963 0.15381,0 0.27344,-0.10254 0.11963,-0.10254 0.11963,-0.27344 0,-0.15381 -0.0854,-0.29053 l -5.12695,-7.3999 q -0.10254,-0.18799 -0.20508,-0.42724 -0.0855,-0.23926 -0.0855,-0.42725 0,-0.22217 0.0684,-0.47852 0.0684,-0.27343 0.22217,-0.4956 0.17089,-0.23926 0.44433,-0.37598 0.27344,-0.15381 0.66651,-0.15381 0.6665,0 1.12793,0.54688 l 7.98095,9.70703 q 0.22217,0.22217 0.54688,0.22217 0.30761,0 0.52978,-0.20508 0.22217,-0.22217 0.22217,-0.56397 z" />
          </g>
        </g>
      </g>
    </g>
    <g
       id="g4335"
       transform="translate(18.000023,195.99994)">
      <rect
         style="opacity:1;fill:#ffffff;fill-opacity:1;stroke:#000000;stroke-width:2.24999976;stroke-linecap:round;stroke-linejoin:round;stroke-miterlimit:4;stroke-dasharray:none;stroke-dashoffset:0;stroke-opacity:1"
         id="rect4859"
         width="449.99997"
         height="224.99998"
         x="41.500053"
         y="188.86221" />
      <g
         id="g4861"
         transform="matrix(2.2499999,0,0,2.2499999,13.374952,-1841.4526)">
        <rect
           ry="5"
           rx="5"
           y="917.36218"
           x="27.5"
           height="70"
           width="70"
           id="rect4863"
           style="opacity:1;fill:#008000;fill-opacity:1;stroke:none;stroke-width:3;stroke-linecap:round;stroke-linejoin:round;stroke-miterlimit:4;stroke-dasharray:none;stroke-opacity:1" />
        <path
           inkscape:connector-curvature="0"
           id="path4865"
           d="M 62.500054,933.61216 A 43.364356,37.500019 0 0 0 25.000053,952.37389 43.364356,37.500019 0 0 0 62.500054,971.11216 43.364356,37.500019 0 0 0 100.00005,952.34948 43.364356,37.500019 0 0 0 62.500054,933.61216 Z"
           style="opacity:1;fill:#ffffff;fill-opacity:1;stroke:#000000;stroke-width:2.5;stroke-linecap:round;stroke-linejoin:round;stroke-miterlimit:4;stroke-dasharray:none;stroke-opacity:1" />
        <path
           inkscape:connector-curvature="0"
           id="path4867"
           d="m 62.500002,935.01633 a 17.345758,17.345758 0 0 0 -17.345857,17.34586 17.345758,17.345758 0 0 0 17.345857,17.34586 17.345758,17.345758 0 0 0 17.345857,-17.34586 17.345758,17.345758 0 0 0 -17.345857,-17.34586 z m 0,14.01252 a 3.3333377,3.3333377 0 0 1 3.333338,3.33334 3.3333377,3.3333377 0 0 1 -3.333338,3.33334 3.3333377,3.3333377 0 0 1 -3.333338,-3.33334 3.3333377,3.3333377 0 0 1 3.333338,-3.33334 z"
           style="opacity:1;fill:#000000;fill-opacity:1;stroke:#000000;stroke-width:1;stroke-linecap:round;stroke-linejoin:round;stroke-miterlimit:4;stroke-dasharray:none;stroke-opacity:1" />
      </g>
      <rect
         style="opacity:1;fill:#008000;fill-opacity:1;stroke:none;stroke-width:3;stroke-linecap:round;stroke-linejoin:round;stroke-miterlimit:4;stroke-dasharray:none;stroke-opacity:1"
         id="rect4879"
         width="157.5"
         height="157.5"
         x="300.24991"
         y="222.61235"
         rx="11.25"
         ry="11.25" />
      <g
         style="font-style:normal;font-weight:normal;font-size:35px;line-height:125%;font-family:Sans;letter-spacing:0px;word-spacing:0px;fill:#ffffff;fill-opacity:1;stroke:#000000;stroke-width:0.87784237;stroke-linecap:butt;stroke-linejoin:miter;stroke-miterlimit:4;stroke-dasharray:none;stroke-opacity:1"
         id="g4883"
         transform="matrix(5.2410758,0,0,5.2410758,-662.73841,-4552.7203)">
        <path
           d="m 206.03186,922.70074 0,-5.00732 q 0,-0.20508 0.10254,-0.47852 0.10254,-0.27343 0.29053,-0.51269 0.20507,-0.25635 0.47851,-0.42725 0.29053,-0.1709 0.64942,-0.1709 0.71777,0 1.11084,0.41016 0.39306,0.39307 0.52978,1.14502 l 1.1792,13.62061 q 0,1.52099 -0.3418,2.70019 -0.34179,1.1792 -0.93994,2.08496 -0.59814,0.88867 -1.40136,1.521 -0.80323,0.61523 -1.72608,1.0083 -0.90576,0.37598 -1.87988,0.56396 -0.97412,0.1709 -1.91406,0.1709 -0.97413,0 -1.6919,-0.15381 -0.70068,-0.17089 -1.21338,-0.39306 -0.51269,-0.23926 -0.88867,-0.49561 -0.35889,-0.27344 -0.6665,-0.4956 L 186.276,928.04987 q -0.37598,-0.30762 -0.59814,-0.66651 -0.20508,-0.35888 -0.20508,-0.75195 0,-0.18799 0.0684,-0.42725 0.0684,-0.25635 0.20508,-0.46142 0.1538,-0.22217 0.39306,-0.35889 0.23926,-0.15381 0.58106,-0.15381 0.39306,0 0.6665,0.11963 0.29053,0.11963 0.49561,0.25635 l 5.53711,4.78515 q 0.11962,0.0855 0.23925,0.0855 0.13672,0 0.30762,-0.13672 0.18799,-0.1538 0.18799,-0.44433 0,-0.11963 -0.0513,-0.18799 -0.0342,-0.0684 -0.11963,-0.15381 l -8.04932,-8.2373 q -0.25634,-0.27344 -0.37597,-0.56397 -0.11963,-0.30761 -0.11963,-0.56396 0,-0.0855 0.0684,-0.30762 0.0684,-0.22217 0.22217,-0.46143 0.1538,-0.23925 0.39306,-0.41015 0.25635,-0.18799 0.63233,-0.18799 0.37597,0 0.61523,0.11963 0.23926,0.10254 0.29053,0.15381 l 7.69043,6.93847 q 0.0684,0.0342 0.13672,0.0513 0.0855,0.0171 0.11963,0.0171 0.18798,0 0.27343,-0.10254 0.10254,-0.10253 0.10254,-0.23925 0,-0.0854 -0.0684,-0.18799 -0.0342,-0.0513 -0.0513,-0.0854 l -7.10937,-8.54492 q -0.41016,-0.41016 -0.41016,-1.04248 0,-0.25635 0.10254,-0.5127 0.11963,-0.25635 0.30762,-0.44433 0.20508,-0.18799 0.44433,-0.30762 0.25635,-0.11963 0.52979,-0.11963 0.23926,0 0.4956,0.0684 0.27344,0.0684 0.5127,0.30762 l 8.32275,8.4082 q 0.10254,0.11963 0.27344,0.11963 0.15381,0 0.27344,-0.10254 0.11963,-0.10254 0.11963,-0.27344 0,-0.15381 -0.0854,-0.29053 l -5.12695,-7.3999 q -0.10254,-0.18799 -0.20508,-0.42724 -0.0855,-0.23926 -0.0855,-0.42725 0,-0.22217 0.0684,-0.47852 0.0684,-0.27343 0.22217,-0.4956 0.17089,-0.23926 0.44433,-0.37598 0.27344,-0.15381 0.66651,-0.15381 0.6665,0 1.12793,0.54688 l 7.98095,9.70703 q 0.22217,0.22217 0.54688,0.22217 0.30761,0 0.52978,-0.20508 0.22217,-0.22217 0.22217,-0.56397 z"
           id="path4885"
           inkscape:connector-curvature="0"
           style="fill:#ffffff;fill-opacity:1;stroke:#000000;stroke-width:0.87784237;stroke-miterlimit:4;stroke-dasharray:none;stroke-opacity:1" />
      </g>
      <g
         transform="matrix(2.2499999,0,0,2.2499999,-61.277728,-1314.7296)"
         id="g5040">
        <path
           style="color:#000000;font-style:normal;font-variant:normal;font-weight:normal;font-stretch:normal;font-size:medium;line-height:normal;font-family:sans-serif;text-indent:0;text-align:start;text-decoration:none;text-decoration-line:none;text-decoration-style:solid;text-decoration-color:#000000;letter-spacing:normal;word-spacing:normal;text-transform:none;direction:ltr;block-progression:tb;writing-mode:lr-tb;baseline-shift:baseline;text-anchor:start;white-space:normal;clip-rule:nonzero;display:inline;overflow:visible;visibility:visible;opacity:1;isolation:auto;mix-blend-mode:normal;color-interpolation:sRGB;color-interpolation-filters:linearRGB;solid-color:#000000;solid-opacity:1;fill:#ffffff;fill-opacity:1;fill-rule:nonzero;stroke:#000000;stroke-width:2;stroke-linecap:round;stroke-linejoin:round;stroke-miterlimit:4;stroke-dasharray:none;stroke-dashoffset:0;stroke-opacity:1;color-rendering:auto;image-rendering:auto;shape-rendering:auto;text-rendering:auto;enable-background:accumulate"
           d="m 162.10225,726.84376 a 2.50025,2.50025 0 0 1 2.46094,2.53516 c 0,11.07531 8.92469,20 20,20 a 2.50025,2.50025 0 1 1 0,5 c -13.77751,0 -25,-11.22249 -25,-25 a 2.50025,2.50025 0 0 1 2.53906,-2.53516 z"
           id="path5014"
           inkscape:connector-curvature="0" />
        <path
           inkscape:connector-curvature="0"
           id="path5024"
           d="m 156.58345,738.61154 a 1.8751875,1.8751875 0 0 1 1.84571,1.90137 c 0,8.30648 6.69352,15 15,15 a 1.8751875,1.8751875 0 1 1 0,3.75 c -10.33313,0 -18.75,-8.41687 -18.75,-18.75 a 1.8751875,1.8751875 0 0 1 1.90429,-1.90137 z"
           style="color:#000000;font-style:normal;font-variant:normal;font-weight:normal;font-stretch:normal;font-size:medium;line-height:normal;font-family:sans-serif;text-indent:0;text-align:start;text-decoration:none;text-decoration-line:none;text-decoration-style:solid;text-decoration-color:#000000;letter-spacing:normal;word-spacing:normal;text-transform:none;direction:ltr;block-progression:tb;writing-mode:lr-tb;baseline-shift:baseline;text-anchor:start;white-space:normal;clip-rule:nonzero;display:inline;overflow:visible;visibility:visible;opacity:1;isolation:auto;mix-blend-mode:normal;color-interpolation:sRGB;color-interpolation-filters:linearRGB;solid-color:#000000;solid-opacity:1;fill:#ffffff;fill-opacity:1;fill-rule:nonzero;stroke:#000000;stroke-width:1.5;stroke-linecap:round;stroke-linejoin:round;stroke-miterlimit:4;stroke-dasharray:none;stroke-dashoffset:0;stroke-opacity:1;color-rendering:auto;image-rendering:auto;shape-rendering:auto;text-rendering:auto;enable-background:accumulate" />
      </g>
      <g
         transform="matrix(2.2499999,0,0,2.2499999,-89.001416,-1287.007)"
         id="g5036">
        <path
           inkscape:connector-curvature="0"
           id="path5032"
           d="m 241.57733,697.3613 a 2.50025,2.50025 0 0 1 -2.46094,-2.53516 c 0,-11.07531 -8.92469,-20 -20,-20 a 2.50025,2.50025 0 1 1 0,-5 c 13.77751,0 25,11.22249 25,25 a 2.50025,2.50025 0 0 1 -2.53906,2.53516 z"
           style="color:#000000;font-style:normal;font-variant:normal;font-weight:normal;font-stretch:normal;font-size:medium;line-height:normal;font-family:sans-serif;text-indent:0;text-align:start;text-decoration:none;text-decoration-line:none;text-decoration-style:solid;text-decoration-color:#000000;letter-spacing:normal;word-spacing:normal;text-transform:none;direction:ltr;block-progression:tb;writing-mode:lr-tb;baseline-shift:baseline;text-anchor:start;white-space:normal;clip-rule:nonzero;display:inline;overflow:visible;visibility:visible;opacity:1;isolation:auto;mix-blend-mode:normal;color-interpolation:sRGB;color-interpolation-filters:linearRGB;solid-color:#000000;solid-opacity:1;fill:#ffffff;fill-opacity:1;fill-rule:nonzero;stroke:#000000;stroke-width:2;stroke-linecap:round;stroke-linejoin:round;stroke-miterlimit:4;stroke-dasharray:none;stroke-dashoffset:0;stroke-opacity:1;color-rendering:auto;image-rendering:auto;shape-rendering:auto;text-rendering:auto;enable-background:accumulate" />
        <path
           style="color:#000000;font-style:normal;font-variant:normal;font-weight:normal;font-stretch:normal;font-size:medium;line-height:normal;font-family:sans-serif;text-indent:0;text-align:start;text-decoration:none;text-decoration-line:none;text-decoration-style:solid;text-decoration-color:#000000;letter-spacing:normal;word-spacing:normal;text-transform:none;direction:ltr;block-progression:tb;writing-mode:lr-tb;baseline-shift:baseline;text-anchor:start;white-space:normal;clip-rule:nonzero;display:inline;overflow:visible;visibility:visible;opacity:1;isolation:auto;mix-blend-mode:normal;color-interpolation:sRGB;color-interpolation-filters:linearRGB;solid-color:#000000;solid-opacity:1;fill:#ffffff;fill-opacity:1;fill-rule:nonzero;stroke:#000000;stroke-width:1.5;stroke-linecap:round;stroke-linejoin:round;stroke-miterlimit:4;stroke-dasharray:none;stroke-dashoffset:0;stroke-opacity:1;color-rendering:auto;image-rendering:auto;shape-rendering:auto;text-rendering:auto;enable-background:accumulate"
           d="m 247.09613,685.59352 a 1.8751875,1.8751875 0 0 1 -1.84571,-1.90137 c 0,-8.30648 -6.69352,-15 -15,-15 a 1.8751875,1.8751875 0 1 1 0,-3.75 c 10.33313,0 18.75,8.41687 18.75,18.75 a 1.8751875,1.8751875 0 0 1 -1.90429,1.90137 z"
           id="path5034"
           inkscape:connector-curvature="0" />
      </g>
    </g>
    <g
       id="g4278"
       transform="translate(17.999992,-195.00003)">
      <rect
         y="338.86218"
         x="41.500053"
         height="225"
         width="450"
         id="rect5072"
         style="opacity:1;fill:#ffffff;fill-opacity:1;stroke:#000000;stroke-width:2.24999976;stroke-linecap:round;stroke-linejoin:round;stroke-miterlimit:4;stroke-dasharray:none;stroke-dashoffset:0;stroke-opacity:1" />
      <g
         transform="matrix(2.25,0,0,2.25,13.374951,-1691.4527)"
         id="g5074">
        <rect
           style="opacity:1;fill:#008000;fill-opacity:1;stroke:none;stroke-width:3;stroke-linecap:round;stroke-linejoin:round;stroke-miterlimit:4;stroke-dasharray:none;stroke-opacity:1"
           id="rect5076"
           width="70"
           height="70"
           x="27.5"
           y="917.36218"
           rx="5"
           ry="5" />
        <path
           style="opacity:1;fill:#ffffff;fill-opacity:1;stroke:#000000;stroke-width:2.5;stroke-linecap:round;stroke-linejoin:round;stroke-miterlimit:4;stroke-dasharray:none;stroke-opacity:1"
           d="M 62.500054,933.61216 A 43.364356,37.500019 0 0 0 25.000053,952.37389 43.364356,37.500019 0 0 0 62.500054,971.11216 43.364356,37.500019 0 0 0 100.00005,952.34948 43.364356,37.500019 0 0 0 62.500054,933.61216 Z"
           id="path5078"
           inkscape:connector-curvature="0" />
        <path
           style="opacity:1;fill:#000000;fill-opacity:1;stroke:#000000;stroke-width:1;stroke-linecap:round;stroke-linejoin:round;stroke-miterlimit:4;stroke-dasharray:none;stroke-opacity:1"
           d="m 62.500002,935.01633 a 17.345758,17.345758 0 0 0 -17.345857,17.34586 17.345758,17.345758 0 0 0 17.345857,17.34586 17.345758,17.345758 0 0 0 17.345857,-17.34586 17.345758,17.345758 0 0 0 -17.345857,-17.34586 z m 0,14.01252 a 3.3333377,3.3333377 0 0 1 3.333338,3.33334 3.3333377,3.3333377 0 0 1 -3.333338,3.33334 3.3333377,3.3333377 0 0 1 -3.333338,-3.33334 3.3333377,3.3333377 0 0 1 3.333338,-3.33334 z"
           id="path5080"
           inkscape:connector-curvature="0" />
      </g>
      <rect
         ry="11.25"
         rx="11.25"
         y="372.61234"
         x="300.24994"
         height="157.5"
         width="157.5"
         id="rect5082"
         style="opacity:1;fill:#008000;fill-opacity:1;stroke:none;stroke-width:3;stroke-linecap:round;stroke-linejoin:round;stroke-miterlimit:4;stroke-dasharray:none;stroke-opacity:1" />
      <g
         transform="matrix(2.25,0,0,2.25,-51.875067,-704.82773)"
         id="g4196">
        <ellipse
           style="opacity:1;fill:#000000;fill-opacity:1;stroke:none;stroke-width:2;stroke-linecap:round;stroke-linejoin:round;stroke-miterlimit:4;stroke-dasharray:none;stroke-dashoffset:0;stroke-opacity:1"
           id="path5100"
           cx="191.5"
           cy="521.15894"
           rx="26.11924"
           ry="11.139088" />
        <g
           id="g5130"
           transform="matrix(1.2649526,0,0,1.2649526,271.71208,-125.57712)"
           style="stroke-width:2;stroke-miterlimit:4;stroke-dasharray:none">
          <path
             inkscape:connector-curvature="0"
             id="path5119"
             d="m -80.338873,502.01605 0,9.02734 a 16.926878,7.2188158 0 0 0 16.927733,7.21875 16.926878,7.2188158 0 0 0 16.927735,-7.21875 l 0,-9.02734 -33.855468,0 z"
             style="opacity:1;fill:#ffffff;fill-opacity:1;stroke:#000000;stroke-width:2;stroke-linecap:round;stroke-linejoin:round;stroke-miterlimit:4;stroke-dasharray:none;stroke-dashoffset:0;stroke-opacity:1" />
          <ellipse
             style="opacity:1;fill:#ffffff;fill-opacity:1;stroke:#000000;stroke-width:2;stroke-linecap:round;stroke-linejoin:round;stroke-miterlimit:4;stroke-dasharray:none;stroke-dashoffset:0;stroke-opacity:1"
             id="ellipse5102"
             cx="-63.411995"
             cy="502.01605"
             rx="16.926878"
             ry="7.2188158" />
        </g>
      </g>
    </g>
    <g
       id="g4269"
       transform="matrix(2.25,0,0,2.25,432.12491,-674.82776)">
      <rect
         style="opacity:1;fill:#ffffff;fill-opacity:1;stroke:#000000;stroke-width:1;stroke-linecap:round;stroke-linejoin:round;stroke-miterlimit:4;stroke-dasharray:none;stroke-dashoffset:0;stroke-opacity:1"
         id="rect4202"
         width="100"
         height="100"
         x="41.500053"
         y="363.86218" />
      <rect
         style="opacity:1;fill:#008000;fill-opacity:1;stroke:none;stroke-width:3;stroke-linecap:round;stroke-linejoin:round;stroke-miterlimit:4;stroke-dasharray:none;stroke-opacity:1"
         id="rect4206"
         width="70"
         height="70"
         x="56.500004"
         y="378.86218"
         rx="5"
         ry="5" />
      <g
         transform="translate(-1.3353027e-6,1.5000126)"
         id="g4263">
        <g
           id="g4227"
           transform="translate(3.4999433,0)">
          <path
             sodipodi:nodetypes="cssccsssc"
             inkscape:connector-curvature="0"
             id="path4236"
             d="m 118.50006,408.36218 c -0.13833,-2.76654 -6.23,-9 -9,-9 l -8,0 c -2.770003,0 -8.861673,6.23346 -9.000003,9 l 0,13 0,13 c 0,2.77 4.69,7 13.000003,7 8.31,0 13,-4.23 13,-7 z"
             style="fill:#ffffff;fill-opacity:1;fill-rule:evenodd;stroke:#000000;stroke-width:2.5;stroke-linecap:butt;stroke-linejoin:miter;stroke-miterlimit:4;stroke-dasharray:none;stroke-opacity:1" />
          <path
             sodipodi:nodetypes="ccccc"
             inkscape:connector-curvature="0"
             id="path4242"
             d="m 103.50006,399.36218 2,14 2,-14 -2,0 z"
             style="fill:#000000;fill-opacity:1;fill-rule:evenodd;stroke:#000000;stroke-width:2.5;stroke-linecap:butt;stroke-linejoin:miter;stroke-miterlimit:4;stroke-dasharray:none;stroke-opacity:1" />
        </g>
        <path
           id="path4260"
           style="fill:none;fill-rule:evenodd;stroke:#000000;stroke-width:2.5;stroke-linecap:round;stroke-linejoin:miter;stroke-miterlimit:4;stroke-dasharray:none;stroke-opacity:1"
           d="m 61.000007,407.36218 c 0,6.62742 5.372583,12 12,12 6.627417,0 12,-5.37258 12,-12 l 4.6e-5,-12.00002 c 0,-6.62742 5.372583,-12 12,-12 6.627417,0 11.999997,5.37258 11.999997,12 l -5e-5,4.00002"
           inkscape:connector-curvature="0"
           sodipodi:nodetypes="csssscc" />
      </g>
    </g>
  </g>
</svg>
